<svg xmlns="http://www.w3.org/2000/svg" viewBox="0 0 304.85 1214.81"><defs><style>.cls-1{fill:#221f34;}.cls-2,.cls-3{fill:#fff;}.cls-3{opacity:0.4;}.cls-10,.cls-4,.cls-5,.cls-6,.cls-7,.cls-9{fill:none;}.cls-4,.cls-5,.cls-9{stroke:#fff;}.cls-10,.cls-4,.cls-5,.cls-9{stroke-miterlimit:10;}.cls-4,.cls-9{stroke-width:0.75px;}.cls-5{stroke-width:0.35px;}.cls-6{stroke:#e6e7e8;stroke-width:3px;}.cls-6,.cls-7,.cls-8,.cls-9{stroke-linecap:round;}.cls-6,.cls-7,.cls-8{stroke-linejoin:round;}.cls-7,.cls-8{stroke:#f1f2f2;}.cls-7{stroke-width:2.5px;}.cls-8{fill:#f1f2f2;stroke-width:2px;}.cls-10{stroke:#231f20;}</style></defs><g id="Background"><rect class="cls-1" width="304.85" height="1214.81"/></g><g id="Rectangle"><path class="cls-2" d="M32.35,858.5a2.91,2.91,0,0,1,2.9,2.91V890.1a2.9,2.9,0,0,1-2.9,2.9H3.65a2.9,2.9,0,0,1-2.9-2.9V861.41a2.91,2.91,0,0,1,2.9-2.91h28.7m0-.75H3.65A3.67,3.67,0,0,0,0,861.41V890.1a3.66,3.66,0,0,0,3.65,3.65h28.7A3.66,3.66,0,0,0,36,890.1V861.41a3.67,3.67,0,0,0-3.65-3.66Z" transform="translate(139.81 76.32)"/><path class="cls-2" d="M32.35,805.5a2.9,2.9,0,0,1,2.9,2.9v28.69a2.9,2.9,0,0,1-2.9,2.91H3.65a2.9,2.9,0,0,1-2.9-2.91V808.4a2.9,2.9,0,0,1,2.9-2.9h28.7m0-.75H3.65A3.66,3.66,0,0,0,0,808.4v28.69a3.67,3.67,0,0,0,3.65,3.66h28.7A3.67,3.67,0,0,0,36,837.09V808.4a3.66,3.66,0,0,0-3.65-3.65Z" transform="translate(139.81 76.32)"/><path class="cls-2" d="M32.35,753a2.9,2.9,0,0,1,2.9,2.9V784.6a2.91,2.91,0,0,1-2.9,2.91H3.65a2.91,2.91,0,0,1-2.9-2.91V755.91a2.9,2.9,0,0,1,2.9-2.9h28.7m0-.75H3.65A3.66,3.66,0,0,0,0,755.91V784.6a3.67,3.67,0,0,0,3.65,3.66h28.7A3.67,3.67,0,0,0,36,784.6V755.91a3.66,3.66,0,0,0-3.65-3.65Z" transform="translate(139.81 76.32)"/><path class="cls-2" d="M32.35,699.39a2.9,2.9,0,0,1,2.9,2.9V731a2.9,2.9,0,0,1-2.9,2.91H3.65A2.9,2.9,0,0,1,.75,731V702.29a2.9,2.9,0,0,1,2.9-2.9h28.7m0-.75H3.65A3.66,3.66,0,0,0,0,702.29V731a3.67,3.67,0,0,0,3.65,3.66h28.7A3.67,3.67,0,0,0,36,731V702.29a3.66,3.66,0,0,0-3.65-3.65Z" transform="translate(139.81 76.32)"/><path class="cls-2" d="M32.35,646.79a2.91,2.91,0,0,1,2.9,2.91v28.69a2.9,2.9,0,0,1-2.9,2.9H3.65a2.9,2.9,0,0,1-2.9-2.9V649.7a2.91,2.91,0,0,1,2.9-2.91h28.7m0-.75H3.65A3.67,3.67,0,0,0,0,649.7v28.69A3.66,3.66,0,0,0,3.65,682h28.7A3.66,3.66,0,0,0,36,678.39V649.7A3.67,3.67,0,0,0,32.35,646Z" transform="translate(139.81 76.32)"/><rect class="cls-3" x="140.18" y="619.08" width="35.25" height="35.25" rx="3.28"/><path class="cls-2" d="M32.35,543.13a2.91,2.91,0,0,1,2.9,2.91v28.69a2.9,2.9,0,0,1-2.9,2.9H3.65a2.9,2.9,0,0,1-2.9-2.9V546a2.91,2.91,0,0,1,2.9-2.91h28.7m0-.75H3.65A3.67,3.67,0,0,0,0,546v28.69a3.66,3.66,0,0,0,3.65,3.65h28.7A3.66,3.66,0,0,0,36,574.73V546a3.67,3.67,0,0,0-3.65-3.66Z" transform="translate(139.81 76.32)"/><rect class="cls-3" x="140.18" y="562.91" width="35.25" height="35.25" rx="3.28"/><path class="cls-2" d="M32.35,487a2.91,2.91,0,0,1,2.9,2.91v28.69a2.9,2.9,0,0,1-2.9,2.9H3.65a2.9,2.9,0,0,1-2.9-2.9V489.87A2.91,2.91,0,0,1,3.65,487h28.7m0-.75H3.65A3.67,3.67,0,0,0,0,489.87v28.69a3.66,3.66,0,0,0,3.65,3.65h28.7A3.66,3.66,0,0,0,36,518.56V489.87a3.67,3.67,0,0,0-3.65-3.66Z" transform="translate(139.81 76.32)"/><rect class="cls-3" x="140.18" y="76.69" width="35.25" height="71.25" rx="3.28"/><path class="cls-2" d="M32.35.75a2.9,2.9,0,0,1,2.9,2.9v64.7a2.9,2.9,0,0,1-2.9,2.9H3.65a2.9,2.9,0,0,1-2.9-2.9V3.65A2.9,2.9,0,0,1,3.65.75h28.7m0-.75H3.65A3.66,3.66,0,0,0,0,3.65v64.7A3.66,3.66,0,0,0,3.65,72h28.7A3.66,3.66,0,0,0,36,68.35V3.65A3.66,3.66,0,0,0,32.35,0Z" transform="translate(139.81 76.32)"/><rect class="cls-3" x="140.18" y="164.52" width="35.25" height="71.25" rx="3.28"/><path class="cls-2" d="M32.35,88.58a2.9,2.9,0,0,1,2.9,2.9v64.7a2.9,2.9,0,0,1-2.9,2.9H3.65a2.9,2.9,0,0,1-2.9-2.9V91.48a2.9,2.9,0,0,1,2.9-2.9h28.7m0-.75H3.65A3.66,3.66,0,0,0,0,91.48v64.7a3.66,3.66,0,0,0,3.65,3.65h28.7A3.66,3.66,0,0,0,36,156.18V91.48a3.66,3.66,0,0,0-3.65-3.65Z" transform="translate(139.81 76.32)"/><rect class="cls-3" x="140.18" y="250.82" width="35.25" height="71.25" rx="3.28"/><path class="cls-2" d="M32.35,174.88a2.9,2.9,0,0,1,2.9,2.9v64.69a2.91,2.91,0,0,1-2.9,2.91H3.65a2.91,2.91,0,0,1-2.9-2.91V177.78a2.9,2.9,0,0,1,2.9-2.9h28.7m0-.75H3.65A3.66,3.66,0,0,0,0,177.78v64.69a3.67,3.67,0,0,0,3.65,3.66h28.7A3.67,3.67,0,0,0,36,242.47V177.78a3.66,3.66,0,0,0-3.65-3.65Z" transform="translate(139.81 76.32)"/><rect class="cls-3" x="140.18" y="340.44" width="35.25" height="35.25" rx="3.28"/><path class="cls-2" d="M32.35,264.49a2.91,2.91,0,0,1,2.9,2.91v28.69a2.9,2.9,0,0,1-2.9,2.9H3.65a2.9,2.9,0,0,1-2.9-2.9V267.4a2.91,2.91,0,0,1,2.9-2.91h28.7m0-.75H3.65A3.67,3.67,0,0,0,0,267.4v28.69a3.66,3.66,0,0,0,3.65,3.65h28.7A3.66,3.66,0,0,0,36,296.09V267.4a3.67,3.67,0,0,0-3.65-3.66Z" transform="translate(139.81 76.32)"/><rect class="cls-3" x="140.18" y="395.08" width="35.25" height="35.25" rx="3.28"/><path class="cls-2" d="M32.35,319.13a2.91,2.91,0,0,1,2.9,2.91v28.69a2.9,2.9,0,0,1-2.9,2.9H3.65a2.9,2.9,0,0,1-2.9-2.9V322a2.91,2.91,0,0,1,2.9-2.91h28.7m0-.75H3.65A3.67,3.67,0,0,0,0,322v28.69a3.66,3.66,0,0,0,3.65,3.65h28.7A3.66,3.66,0,0,0,36,350.73V322a3.67,3.67,0,0,0-3.65-3.66Z" transform="translate(139.81 76.32)"/><rect class="cls-3" x="140.18" y="449.72" width="35.25" height="35.25" rx="3.28"/><path class="cls-2" d="M32.35,373.77a2.9,2.9,0,0,1,2.9,2.91v28.69a2.9,2.9,0,0,1-2.9,2.9H3.65a2.9,2.9,0,0,1-2.9-2.9V376.68a2.9,2.9,0,0,1,2.9-2.91h28.7m0-.75H3.65A3.67,3.67,0,0,0,0,376.68v28.69A3.66,3.66,0,0,0,3.65,409h28.7A3.66,3.66,0,0,0,36,405.37V376.68A3.67,3.67,0,0,0,32.35,373Z" transform="translate(139.81 76.32)"/><rect class="cls-3" x="140.18" y="505.37" width="35.25" height="35.25" rx="3.28"/><path class="cls-2" d="M32.35,429.43a2.9,2.9,0,0,1,2.9,2.91V461a2.9,2.9,0,0,1-2.9,2.9H3.65A2.9,2.9,0,0,1,.75,461V432.34a2.9,2.9,0,0,1,2.9-2.91h28.7m0-.75H3.65A3.67,3.67,0,0,0,0,432.34V461a3.66,3.66,0,0,0,3.65,3.65h28.7A3.66,3.66,0,0,0,36,461V432.34a3.67,3.67,0,0,0-3.65-3.66Z" transform="translate(139.81 76.32)"/></g><g id="OUTLINES"><g id="LWPOLYLINE"><rect class="cls-4" x="156.73" y="167.55" width="2.16" height="64.44"/></g><g id="LWPOLYLINE-2" data-name="LWPOLYLINE"><polygon class="cls-4" points="158.21 625.51 157.41 625.51 156.25 628.99 156.15 629.05 156.06 629.11 155.96 629.17 155.87 629.24 155.79 629.3 155.7 629.37 155.62 629.45 155.54 629.52 155.46 629.6 155.39 629.69 155.31 629.77 155.25 629.86 155.18 629.95 155.12 630.04 155.06 630.13 155 630.23 154.95 630.33 154.9 630.42 154.85 630.52 154.81 630.63 154.77 630.73 154.74 630.84 154.7 630.94 154.68 631.05 154.65 631.16 154.63 631.27 154.61 631.38 154.6 631.49 154.59 631.6 154.59 631.71 154.58 631.82 154.59 631.93 154.59 632.04 154.6 632.15 154.61 632.26 154.63 632.37 154.65 632.48 154.68 632.59 154.71 632.7 154.74 632.8 154.77 632.91 154.81 633.01 154.85 633.11 154.9 633.21 154.95 633.31 155 633.41 155.06 633.51 155.12 633.6 155.18 633.69 155.25 633.78 155.32 633.87 155.39 633.95 155.39 637.01 156.2 637.01 156.2 641.04 159.42 641.04 159.42 637.01 160.23 637.01 160.23 633.95 160.3 633.87 160.37 633.78 160.44 633.69 160.5 633.6 160.56 633.51 160.62 633.41 160.67 633.31 160.72 633.21 160.77 633.11 160.81 633.01 160.85 632.91 160.88 632.8 160.92 632.7 160.94 632.59 160.97 632.48 160.99 632.37 161.01 632.26 161.02 632.15 161.03 632.04 161.04 631.93 161.04 631.82 161.04 631.71 161.03 631.6 161.02 631.49 161.01 631.38 160.99 631.27 160.97 631.16 160.94 631.05 160.92 630.94 160.88 630.84 160.85 630.73 160.81 630.63 160.77 630.52 160.72 630.42 160.67 630.33 160.62 630.23 160.56 630.13 160.5 630.04 160.44 629.95 160.38 629.86 160.31 629.77 160.23 629.69 160.16 629.6 160.08 629.52 160 629.45 159.92 629.37 159.83 629.3 159.75 629.24 159.66 629.17 159.56 629.11 159.47 629.05 159.38 628.99 158.21 625.51"/></g><g id="CIRCLE"><path class="cls-4" d="M12.18,500.67A3.21,3.21,0,1,0,9,503.88a3.21,3.21,0,0,0,3.21-3.21Z" transform="translate(139.81 76.32)"/></g><g id="CIRCLE-2" data-name="CIRCLE"><path class="cls-4" d="M30.94,510.3A1.93,1.93,0,1,0,29,512.22a1.93,1.93,0,0,0,1.92-1.92Z" transform="translate(139.81 76.32)"/></g><g id="LWPOLYLINE-3" data-name="LWPOLYLINE"><polygon class="cls-4" points="164.34 571.22 148.71 571.22 148.51 571.22 148.31 571.23 148.12 571.25 147.92 571.27 147.72 571.31 147.53 571.34 147.33 571.39 147.14 571.44 146.95 571.5 146.76 571.56 146.57 571.63 146.39 571.71 146.21 571.79 146.03 571.88 145.85 571.98 145.68 572.08 145.52 572.19 145.35 572.3 145.19 572.42 145.04 572.54 144.88 572.67 144.74 572.81 144.6 572.95 144.46 573.09 144.33 573.24 144.2 573.39 144.08 573.55 143.96 573.71 143.85 573.88 143.75 574.05 143.65 574.22 143.56 574.4 143.47 574.58 143.39 574.76 143.31 574.95 143.25 575.13 143.19 575.32 143.13 575.52 143.08 575.71 143.04 575.9 143.01 576.1 142.98 576.3 142.96 576.5 142.95 576.7 142.94 576.89 142.94 577.09 142.95 577.29 142.96 577.49 142.98 577.69 143.01 577.89 143.04 578.09 143.09 578.28 143.13 578.47 143.19 578.66 143.25 578.86 143.31 579.04 143.39 579.23 143.47 579.41 143.56 579.59 143.65 579.77 143.75 579.94 143.85 580.11 143.96 580.27 144.08 580.44 144.2 580.6 144.33 580.75 144.46 580.9 144.6 581.04 144.74 581.18 153.65 589.77 153.69 589.82 153.74 589.87 153.78 589.92 153.83 589.96 153.88 590 153.93 590.05 153.98 590.09 154.03 590.12 154.09 590.16 154.14 590.19 154.2 590.23 154.25 590.26 154.31 590.28 154.37 590.31 154.43 590.34 154.49 590.36 154.56 590.38 154.62 590.4 154.68 590.41 154.74 590.43 154.81 590.44 154.87 590.45 154.94 590.46 155 590.46 155.06 590.47 155.13 590.47 168.83 590.47 168.96 590.46 169.09 590.46 169.23 590.45 169.36 590.43 169.49 590.41 169.62 590.38 169.75 590.36 169.88 590.32 170 590.28 170.13 590.24 170.25 590.19 170.38 590.14 170.5 590.09 170.62 590.03 170.73 589.96 170.85 589.89 170.96 589.82 171.07 589.75 171.18 589.67 171.28 589.59 171.38 589.5 171.48 589.41 171.57 589.32 171.66 589.22 171.75 589.12 171.84 589.02 171.92 588.91 172 588.8 172.07 588.69 172.14 588.58 172.21 588.47 172.27 588.35 172.32 588.23 172.38 588.11 172.43 587.98 172.47 587.86 172.51 587.73 172.55 587.6 172.58 587.47 172.61 587.34 172.63 587.21 172.65 587.08 172.66 586.95 172.67 586.82 172.68 586.68 172.68 586.55 172.67 586.42 172.66 586.28 172.65 586.15 172.63 586.02 172.61 585.89 172.58 585.76 172.55 585.63 172.51 585.5 172.47 585.38 172.43 585.25 172.38 585.13 172.32 585.01 172.27 584.89 166.13 572.46 166.11 572.4 166.08 572.34 166.05 572.28 166.02 572.22 165.99 572.16 165.96 572.1 165.92 572.05 165.88 571.99 165.84 571.94 165.8 571.89 165.75 571.84 165.71 571.79 165.66 571.75 165.61 571.7 165.56 571.66 165.51 571.62 165.46 571.58 165.4 571.54 165.34 571.5 165.29 571.47 165.23 571.44 165.17 571.41 165.11 571.38 165.05 571.36 164.99 571.33 164.92 571.31 164.86 571.29 164.8 571.28 164.73 571.26 164.67 571.25 164.6 571.24 164.54 571.23 164.47 571.23 164.4 571.22 164.34 571.22"/></g><g id="CIRCLE-3" data-name="CIRCLE"><path class="cls-4" d="M14.79,448.41a3.21,3.21,0,1,0-3.2,3.21,3.21,3.21,0,0,0,3.2-3.21Z" transform="translate(139.81 76.32)"/></g><g id="CIRCLE-4" data-name="CIRCLE"><path class="cls-4" d="M21.21,442.33a1.93,1.93,0,1,0-1.93,1.93,1.92,1.92,0,0,0,1.93-1.93Z" transform="translate(139.81 76.32)"/></g><g id="CIRCLE-5" data-name="CIRCLE"><path class="cls-4" d="M28.91,449.69a3.21,3.21,0,1,0-3.21,3.21,3.21,3.21,0,0,0,3.21-3.21Z" transform="translate(139.81 76.32)"/></g><g id="LWPOLYLINE-4" data-name="LWPOLYLINE"><polygon class="cls-4" points="161.33 515.52 161.22 515.45 161.11 515.37 161 515.31 160.88 515.24 160.76 515.18 160.64 515.13 160.52 515.08 160.4 515.03 160.27 514.99 160.15 514.95 160.02 514.91 159.89 514.88 159.76 514.86 159.63 514.84 159.5 514.82 159.36 514.81 159.23 514.8 159.1 514.8 158.97 514.8 158.84 514.81 158.7 514.82 158.57 514.84 158.44 514.86 158.31 514.88 158.18 514.91 149.27 518 149.04 518.07 148.81 518.16 148.59 518.25 148.36 518.35 148.15 518.46 147.93 518.58 147.72 518.7 147.51 518.83 147.31 518.97 147.12 519.12 146.92 519.27 146.74 519.42 146.56 519.59 146.38 519.76 146.21 519.93 146.05 520.12 145.9 520.3 145.75 520.5 145.6 520.7 145.47 520.9 145.34 521.11 145.22 521.32 145.1 521.53 145 521.75 144.9 521.98 144.81 522.2 144.72 522.43 144.65 522.66 144.58 522.9 144.52 523.13 144.47 523.37 144.43 523.61 144.39 523.86 144.37 524.1 144.35 524.34 144.34 524.59 144.34 524.83 144.35 525.07 144.36 525.32 144.39 525.56 144.42 525.8 144.46 526.04 144.51 526.28 144.57 526.52 144.63 526.75 144.71 526.99 144.79 527.22 144.88 527.44 144.98 527.67 145.08 527.89 145.2 528.1 145.32 528.32 145.44 528.52 145.58 528.73 145.72 528.92 145.87 529.12 146.03 529.31 146.19 529.49 146.35 529.67 146.53 529.84 146.71 530 146.89 530.16 147.08 530.32 147.28 530.46 147.48 530.6 147.69 530.73 147.9 530.86 148.11 530.97 148.33 531.08 148.55 531.19 148.78 531.28 149 531.37 149.23 531.45 149.47 531.52 149.7 531.58 149.94 531.63 150.18 531.68 150.42 531.72 150.66 531.75 150.91 531.77 151.15 531.78 151.4 531.78 165.51 531.78 165.71 531.78 165.91 531.77 166.11 531.75 166.31 531.73 166.51 531.7 166.71 531.66 166.9 531.61 167.09 531.56 167.29 531.5 167.48 531.44 167.66 531.37 167.85 531.29 168.03 531.2 168.21 531.11 168.39 531.01 168.56 530.91 168.73 530.8 168.89 530.69 169.05 530.57 169.21 530.44 169.36 530.31 169.51 530.17 169.65 530.03 169.79 529.88 169.92 529.73 170.05 529.58 170.17 529.42 170.28 529.25 170.4 529.08 170.5 528.91 170.6 528.74 170.69 528.56 170.78 528.38 170.85 528.19 170.93 528 170.99 527.81 171.05 527.62 171.1 527.43 171.15 527.23 171.19 527.03 171.22 526.84 171.25 526.64 171.27 526.44 171.28 526.24 171.28 526.04 171.28 525.84 171.27 525.63 171.25 525.43 171.23 525.23 171.2 525.04 171.16 524.84 171.12 524.64 171.07 524.45 171.01 524.25 170.94 524.07 170.87 523.88 170.8 523.69 170.71 523.51 170.62 523.33 170.53 523.15 170.42 522.98 170.32 522.81 170.2 522.65 170.08 522.48 169.96 522.33 169.82 522.17 169.69 522.03 169.55 521.88 169.4 521.75 169.25 521.61 169.1 521.49 168.94 521.36 168.77 521.25 161.33 515.52"/></g><g id="CIRCLE-6" data-name="CIRCLE"><path class="cls-4" d="M23.27,386.12A1.93,1.93,0,1,0,21.35,388a1.92,1.92,0,0,0,1.92-1.92Z" transform="translate(139.81 76.32)"/></g><g id="CIRCLE-7" data-name="CIRCLE"><path class="cls-4" d="M26.48,394.18a3.21,3.21,0,1,0-3.21,3.21,3.2,3.2,0,0,0,3.21-3.21Z" transform="translate(139.81 76.32)"/></g><g id="LWPOLYLINE-5" data-name="LWPOLYLINE"><polygon class="cls-4" points="160.51 457.94 156.03 457.94 149.89 457.94 149.89 464.49 148.6 464.49 148.6 474.12 149.89 474.12 149.89 477.19 156.03 477.19 162.17 477.19 162.4 477.19 162.63 477.18 162.86 477.16 163.09 477.13 163.32 477.09 163.55 477.05 163.77 477 164 476.94 164.22 476.87 164.44 476.8 164.65 476.71 164.86 476.62 165.07 476.53 165.28 476.42 165.48 476.31 165.68 476.19 165.88 476.07 166.07 475.94 166.25 475.8 166.43 475.66 166.61 475.51 166.78 475.35 166.94 475.19 167.1 475.02 167.25 474.85 167.4 474.67 167.54 474.48 167.68 474.3 167.81 474.1 167.93 473.91 168.04 473.71 168.15 473.5 168.25 473.29 168.34 473.08 168.43 472.87 168.5 472.65 168.57 472.43 168.64 472.2 168.69 471.98 168.74 471.75 168.78 471.53 168.81 471.3 168.83 471.07 168.85 470.84 168.86 470.61 168.86 470.38 168.85 470.14 168.83 469.91 168.81 469.68 168.77 469.45 168.73 469.23 168.69 469 168.63 468.78 168.57 468.55 168.5 468.33 168.42 468.12 168.33 467.9 168.24 467.69 168.14 467.48 168.03 467.28 164.54 460.45 164.47 460.31 164.4 460.18 164.31 460.04 164.23 459.91 164.14 459.78 164.04 459.66 163.94 459.54 163.84 459.42 163.74 459.3 163.62 459.19 163.51 459.09 163.39 458.99 163.27 458.89 163.14 458.79 163.01 458.7 162.88 458.62 162.75 458.54 162.61 458.46 162.47 458.39 162.33 458.33 162.19 458.27 162.04 458.21 161.89 458.16 161.74 458.11 161.59 458.07 161.44 458.04 161.28 458.01 161.13 457.99 160.97 457.97 160.82 457.95 160.66 457.94 160.51 457.94"/></g><g id="CIRCLE-8" data-name="CIRCLE"><path class="cls-4" d="M16.08,281.74a1.93,1.93,0,1,0-1.93,1.93,1.93,1.93,0,0,0,1.93-1.93Z" transform="translate(139.81 76.32)"/></g><g id="CIRCLE-9" data-name="CIRCLE"><path class="cls-4" d="M25.06,281.74a1.93,1.93,0,1,0-1.93,1.93,1.92,1.92,0,0,0,1.93-1.93Z" transform="translate(139.81 76.32)"/></g><g id="LWPOLYLINE-6" data-name="LWPOLYLINE"><polygon class="cls-4" points="161.66 352.29 153.96 352.29 153.76 352.29 153.56 352.3 153.36 352.32 153.16 352.35 152.97 352.38 152.77 352.41 152.58 352.46 152.38 352.51 152.19 352.57 152 352.63 151.82 352.7 151.63 352.78 151.45 352.86 151.28 352.95 151.1 353.05 150.93 353.15 150.76 353.26 150.6 353.37 150.44 353.49 150.28 353.61 150.13 353.74 149.98 353.88 149.84 354.02 149.7 354.16 149.57 354.31 149.44 354.46 149.32 354.62 149.21 354.78 149.1 354.95 148.99 355.12 148.89 355.29 148.8 355.47 148.72 355.65 148.63 355.83 148.56 356.02 148.49 356.2 148.43 356.39 148.38 356.58 148.33 356.78 148.29 356.97 148.25 357.17 148.23 357.37 148.21 357.57 148.19 357.76 148.19 357.96 148.19 358.16 148.19 358.36 148.21 358.56 148.23 358.76 148.25 358.96 148.29 359.15 148.33 359.35 148.38 359.54 148.43 359.73 148.49 359.92 148.56 360.11 148.63 360.3 148.72 360.48 148.8 360.66 148.89 360.83 148.99 361.01 149.1 361.18 149.21 361.34 149.32 361.51 149.44 361.66 149.57 361.82 149.7 361.97 149.84 362.11 149.98 362.25 150.13 362.39 150.28 362.51 150.44 362.64 150.6 362.76 150.76 362.87 150.93 362.98 151.1 363.08 151.28 363.18 151.45 363.27 151.63 363.35 151.82 363.43 152 363.5 152.19 363.56 152.38 363.62 152.58 363.67 152.77 363.71 152.97 363.75 153.16 363.78 153.36 363.81 153.56 363.82 153.76 363.83 153.96 363.84 161.66 363.84 161.86 363.83 162.06 363.82 162.25 363.81 162.45 363.78 162.65 363.75 162.84 363.71 163.04 363.67 163.23 363.62 163.42 363.56 163.61 363.5 163.8 363.43 163.98 363.35 164.16 363.27 164.34 363.18 164.52 363.08 164.69 362.98 164.85 362.87 165.02 362.76 165.18 362.64 165.34 362.51 165.49 362.39 165.63 362.25 165.78 362.11 165.91 361.97 166.04 361.82 166.17 361.66 166.29 361.51 166.41 361.34 166.52 361.18 166.63 361.01 166.72 360.83 166.82 360.66 166.9 360.48 166.98 360.3 167.06 360.11 167.12 359.92 167.19 359.73 167.24 359.54 167.29 359.35 167.33 359.15 167.36 358.96 167.39 358.76 167.41 358.56 167.42 358.36 167.43 358.16 167.43 357.96 167.42 357.76 167.41 357.57 167.39 357.37 167.36 357.17 167.33 356.97 167.29 356.78 167.24 356.58 167.19 356.39 167.12 356.2 167.06 356.02 166.98 355.83 166.9 355.65 166.82 355.47 166.72 355.29 166.63 355.12 166.52 354.95 166.41 354.78 166.29 354.62 166.17 354.46 166.04 354.31 165.91 354.16 165.78 354.02 165.63 353.88 165.49 353.74 165.34 353.61 165.18 353.49 165.02 353.37 164.85 353.26 164.69 353.15 164.52 353.05 164.34 352.95 164.16 352.86 163.98 352.78 163.8 352.7 163.61 352.63 163.42 352.57 163.23 352.51 163.04 352.46 162.84 352.41 162.65 352.38 162.45 352.35 162.25 352.32 162.06 352.3 161.86 352.29 161.66 352.29"/></g><g id="CIRCLE-10" data-name="CIRCLE"><path class="cls-4" d="M23.72,337.26a1.93,1.93,0,1,0-1.93,1.92,1.93,1.93,0,0,0,1.93-1.92Z" transform="translate(139.81 76.32)"/></g><g id="LWPOLYLINE-7" data-name="LWPOLYLINE"><polygon class="cls-4" points="157.11 402.47 150.69 402.47 150.69 407.8 149.41 407.8 149.41 412.29 148.43 412.29 148.43 414.86 149.41 414.86 149.41 419.35 150.69 419.35 150.69 421.72 157.11 421.72 157.11 419.35 161.6 419.35 161.8 419.35 162 419.34 162.2 419.32 162.39 419.3 162.59 419.26 162.79 419.23 162.98 419.18 163.17 419.13 163.36 419.07 163.55 419.01 163.74 418.94 163.92 418.86 164.1 418.78 164.28 418.69 164.46 418.59 164.63 418.49 164.8 418.38 164.96 418.27 165.12 418.15 165.28 418.03 165.43 417.9 165.57 417.76 165.72 417.62 165.85 417.48 165.99 417.33 166.11 417.18 166.24 417.02 166.35 416.86 166.46 416.69 166.57 416.52 166.66 416.35 166.76 416.17 166.84 415.99 166.92 415.81 167 415.62 167.06 415.44 167.13 415.25 167.18 415.05 167.23 414.86 167.27 414.67 167.3 414.47 167.33 414.27 167.35 414.07 167.37 413.88 167.37 413.68 167.37 413.48 167.37 413.28 167.35 413.08 167.33 412.88 167.3 412.68 167.27 412.49 167.23 412.29 167.18 412.1 167.13 411.91 167.06 411.72 167 411.53 166.92 411.34 166.84 411.16 166.76 410.98 166.66 410.81 166.57 410.63 166.46 410.46 166.35 410.3 166.24 410.13 166.11 409.98 165.99 409.82 165.85 409.67 165.72 409.53 165.57 409.39 165.43 409.25 165.28 409.12 165.12 409 164.96 408.88 164.8 408.77 164.63 408.66 164.46 408.56 164.28 408.46 164.1 408.37 163.92 408.29 163.74 408.21 163.55 408.14 163.36 408.08 163.17 408.02 162.98 407.97 162.79 407.93 162.59 407.89 162.39 407.86 162.2 407.83 162 407.82 161.8 407.81 161.6 407.8 157.11 407.8 157.11 402.47"/></g><g id="LWPOLYLINE-8" data-name="LWPOLYLINE"><polygon class="cls-4" points="160.01 89 155.61 89 155.61 103.71 156.49 109.23 156.49 115.47 155.61 120.98 155.61 135.69 160.01 135.69 160.01 120.98 159.13 115.47 159.13 109.23 160.01 103.71 160.01 89"/></g><g id="LWPOLYLINE-9" data-name="LWPOLYLINE"><polygon class="cls-4" points="168.95 255.09 168.19 254.33 153.12 269.4 152.67 269.87 152.23 270.35 151.81 270.85 151.41 271.36 151.03 271.88 150.66 272.42 150.31 272.97 149.98 273.53 149.68 274.11 149.39 274.69 149.12 275.28 148.87 275.88 148.64 276.49 148.43 277.11 148.25 277.73 148.08 278.36 147.94 279 147.82 279.63 147.72 280.28 147.64 280.92 147.58 281.57 147.55 282.22 147.54 282.87 147.54 318.57 149.7 318.57 149.7 282.87 149.71 282.3 149.74 281.72 149.78 281.14 149.85 280.57 149.94 280 150.05 279.43 150.18 278.87 150.32 278.31 150.49 277.76 150.67 277.21 150.87 276.67 151.09 276.14 151.33 275.62 151.59 275.1 151.86 274.59 152.16 274.09 152.46 273.61 152.79 273.13 153.13 272.66 153.49 272.21 153.86 271.77 154.24 271.34 154.65 270.92 169.72 255.85 168.95 255.09"/></g></g><g id="_2D" data-name="2D"><g id="LINE"><line class="cls-5" x1="157.41" y1="625.51" x2="158.21" y2="625.51"/></g><g id="LINE-2" data-name="LINE"><line class="cls-5" x1="159.37" y1="628.99" x2="157.81" y2="628.99"/></g><g id="LINE-3" data-name="LINE"><line class="cls-5" x1="159.42" y1="637.01" x2="157.81" y2="637.01"/></g><g id="LINE-4" data-name="LINE"><line class="cls-5" x1="156.2" y1="637.01" x2="155.39" y2="637.01"/></g><g id="LINE-5" data-name="LINE"><line class="cls-5" x1="156.25" y1="628.99" x2="157.41" y2="625.51"/></g><g id="LINE-6" data-name="LINE"><line class="cls-5" x1="158.21" y1="625.51" x2="159.37" y2="628.99"/></g><g id="LINE-7" data-name="LINE"><line class="cls-5" x1="160.23" y1="637.01" x2="159.42" y2="637.01"/></g><g id="LINE-8" data-name="LINE"><line class="cls-5" x1="155.39" y1="637.01" x2="155.39" y2="633.95"/></g><g id="LINE-9" data-name="LINE"><line class="cls-5" x1="160.23" y1="633.95" x2="160.23" y2="637.01"/></g><g id="LINE-10" data-name="LINE"><line class="cls-5" x1="159.42" y1="641.04" x2="157.81" y2="641.04"/></g><g id="LINE-11" data-name="LINE"><line class="cls-5" x1="156.2" y1="641.04" x2="156.2" y2="637.01"/></g><g id="LINE-12" data-name="LINE"><line class="cls-5" x1="159.42" y1="637.01" x2="159.42" y2="641.04"/></g><g id="ARC"><path class="cls-5" d="M15.58,557.63a2.91,2.91,0,0,1-.4-.57,3.23,3.23,0,0,1,1.26-4.39" transform="translate(139.81 76.32)"/></g><g id="ARC-2" data-name="ARC"><path class="cls-5" d="M20.42,557.63a3.23,3.23,0,0,0-.28-4.55,3.73,3.73,0,0,0-.57-.41" transform="translate(139.81 76.32)"/></g><g id="LINE-13" data-name="LINE"><line class="cls-5" x1="157.81" y1="628.99" x2="156.25" y2="628.99"/></g><g id="LINE-14" data-name="LINE"><line class="cls-5" x1="155.39" y1="633.95" x2="160.23" y2="633.95"/></g><g id="LINE-15" data-name="LINE"><line class="cls-5" x1="157.81" y1="641.04" x2="156.2" y2="641.04"/></g><g id="LINE-16" data-name="LINE"><line class="cls-5" x1="157.81" y1="637.01" x2="156.2" y2="637.01"/></g><g id="LINE-17" data-name="LINE"><line class="cls-5" x1="154.15" y1="577.77" x2="163.31" y2="577.77"/></g><g id="LINE-18" data-name="LINE"><line class="cls-5" x1="154.15" y1="587.39" x2="163.31" y2="587.39"/></g><g id="LINE-19" data-name="LINE"><line class="cls-5" x1="163.31" y1="577.77" x2="165.4" y2="577.77"/></g><g id="LINE-20" data-name="LINE"><line class="cls-5" x1="163.31" y1="587.39" x2="165.4" y2="587.39"/></g><g id="CIRCLE-11" data-name="CIRCLE"><path class="cls-5" d="M30.94,510.3A1.93,1.93,0,1,0,29,512.22a1.93,1.93,0,0,0,1.92-1.92Z" transform="translate(139.81 76.32)"/></g><g id="CIRCLE-12" data-name="CIRCLE"><path class="cls-5" d="M12.18,500.67A3.21,3.21,0,1,0,9,503.88a3.21,3.21,0,0,0,3.21-3.21Z" transform="translate(139.81 76.32)"/></g><g id="LINE-21" data-name="LINE"><line class="cls-5" x1="164.02" y1="587.39" x2="164.02" y2="590.47"/></g><g id="LINE-22" data-name="LINE"><line class="cls-5" x1="155.45" y1="577.77" x2="155.45" y2="571.22"/></g><g id="LINE-23" data-name="LINE"><line class="cls-5" x1="154.15" y1="577.77" x2="154.15" y2="587.39"/></g><g id="LINE-24" data-name="LINE"><line class="cls-5" x1="165.4" y1="587.39" x2="165.4" y2="577.77"/></g><g id="LINE-25" data-name="LINE"><line class="cls-5" x1="164.02" y1="590.47" x2="162.49" y2="590.47"/></g><g id="LINE-26" data-name="LINE"><line class="cls-5" x1="164.02" y1="571.22" x2="162.49" y2="571.22"/></g><g id="LINE-27" data-name="LINE"><line class="cls-5" x1="164.02" y1="590.47" x2="168.83" y2="590.47"/></g><g id="LINE-28" data-name="LINE"><line class="cls-5" x1="164.02" y1="571.22" x2="164.02" y2="577.77"/></g><g id="LINE-29" data-name="LINE"><line class="cls-5" x1="155.45" y1="571.22" x2="148.71" y2="571.22"/></g><g id="LINE-30" data-name="LINE"><line class="cls-5" x1="155.45" y1="590.47" x2="155.45" y2="587.39"/></g><g id="LINE-31" data-name="LINE"><line class="cls-5" x1="162.49" y1="590.47" x2="155.45" y2="590.47"/></g><g id="LINE-32" data-name="LINE"><line class="cls-5" x1="162.49" y1="571.22" x2="155.45" y2="571.22"/></g><g id="LINE-33" data-name="LINE"><line class="cls-5" x1="155.13" y1="590.47" x2="155.45" y2="590.47"/></g><g id="ARC-3" data-name="ARC"><path class="cls-5" d="M13.84,513.46a2,2,0,0,0,1.48.69" transform="translate(139.81 76.32)"/></g><g id="LINE-34" data-name="LINE"><line class="cls-5" x1="144.74" y1="581.18" x2="153.65" y2="589.77"/></g><g id="ARC-4" data-name="ARC"><path class="cls-5" d="M8.91,494.9a5.77,5.77,0,0,0-4,10" transform="translate(139.81 76.32)"/></g><g id="ARC-5" data-name="ARC"><path class="cls-5" d="M26.33,496.14a1.93,1.93,0,0,0-1.8-1.24" transform="translate(139.81 76.32)"/></g><g id="LINE-35" data-name="LINE"><line class="cls-5" x1="172.27" y1="584.89" x2="166.13" y2="572.46"/></g><g id="ARC-6" data-name="ARC"><path class="cls-5" d="M29,514.15a3.85,3.85,0,0,0,3.44-5.58" transform="translate(139.81 76.32)"/></g><g id="LINE-36" data-name="LINE"><line class="cls-5" x1="164.34" y1="571.22" x2="164.02" y2="571.22"/></g><g id="CIRCLE-13" data-name="CIRCLE"><path class="cls-5" d="M28.91,449.69a3.21,3.21,0,1,0-3.21,3.21,3.21,3.21,0,0,0,3.21-3.21Z" transform="translate(139.81 76.32)"/></g><g id="CIRCLE-14" data-name="CIRCLE"><path class="cls-5" d="M21.21,442.33a1.93,1.93,0,1,0-1.93,1.93,1.92,1.92,0,0,0,1.93-1.93Z" transform="translate(139.81 76.32)"/></g><g id="CIRCLE-15" data-name="CIRCLE"><path class="cls-5" d="M8.38,448.41a3.21,3.21,0,1,1,3.21,3.21,3.21,3.21,0,0,1-3.21-3.21Z" transform="translate(139.81 76.32)"/></g><g id="CIRCLE-16" data-name="CIRCLE"><path class="cls-5" d="M16.08,448.41a4.5,4.5,0,1,0-4.49,4.49,4.49,4.49,0,0,0,4.49-4.49Z" transform="translate(139.81 76.32)"/></g><g id="LINE-37" data-name="LINE"><line class="cls-5" x1="158.18" y1="514.91" x2="149.27" y2="518"/></g><g id="ARC-7" data-name="ARC"><path class="cls-5" d="M21.52,439.2a3.87,3.87,0,0,0-3.15-.61" transform="translate(139.81 76.32)"/></g><g id="LINE-38" data-name="LINE"><line class="cls-5" x1="168.77" y1="521.25" x2="161.33" y2="515.52"/></g><g id="ARC-8" data-name="ARC"><path class="cls-5" d="M25.7,455.46A5.77,5.77,0,0,0,29,444.93" transform="translate(139.81 76.32)"/></g><g id="LINE-39" data-name="LINE"><line class="cls-5" x1="151.4" y1="531.78" x2="165.51" y2="531.78"/></g><g id="ARC-9" data-name="ARC"><path class="cls-5" d="M9.46,441.68a7.06,7.06,0,0,0,2.13,13.79" transform="translate(139.81 76.32)"/></g><g id="LINE-40" data-name="LINE"><line class="cls-5" x1="149.89" y1="464.49" x2="157.39" y2="464.49"/></g><g id="LINE-41" data-name="LINE"><line class="cls-5" x1="149.89" y1="474.12" x2="157.39" y2="474.12"/></g><g id="LINE-42" data-name="LINE"><line class="cls-5" x1="149.89" y1="464.49" x2="149.89" y2="457.94"/></g><g id="LINE-43" data-name="LINE"><line class="cls-5" x1="148.6" y1="464.49" x2="149.89" y2="464.49"/></g><g id="LINE-44" data-name="LINE"><line class="cls-5" x1="149.89" y1="477.19" x2="156.03" y2="477.19"/></g><g id="LINE-45" data-name="LINE"><line class="cls-5" x1="149.89" y1="457.94" x2="156.03" y2="457.94"/></g><g id="LINE-46" data-name="LINE"><line class="cls-5" x1="148.6" y1="474.12" x2="149.89" y2="474.12"/></g><g id="LINE-47" data-name="LINE"><line class="cls-5" x1="148.6" y1="474.12" x2="148.6" y2="464.49"/></g><g id="LINE-48" data-name="LINE"><line class="cls-5" x1="149.89" y1="477.19" x2="149.89" y2="474.12"/></g><g id="CIRCLE-17" data-name="CIRCLE"><path class="cls-5" d="M23.27,386.12A1.93,1.93,0,1,0,21.35,388a1.92,1.92,0,0,0,1.92-1.92Z" transform="translate(139.81 76.32)"/></g><g id="CIRCLE-18" data-name="CIRCLE"><path class="cls-5" d="M26.48,394.18a3.21,3.21,0,1,0-3.21,3.21,3.2,3.2,0,0,0,3.21-3.21Z" transform="translate(139.81 76.32)"/></g><g id="LINE-49" data-name="LINE"><line class="cls-5" x1="156.03" y1="474.12" x2="156.03" y2="477.19"/></g><g id="LINE-50" data-name="LINE"><line class="cls-5" x1="157.39" y1="474.12" x2="157.39" y2="464.49"/></g><g id="LINE-51" data-name="LINE"><line class="cls-5" x1="156.03" y1="477.19" x2="162.17" y2="477.19"/></g><g id="LINE-52" data-name="LINE"><line class="cls-5" x1="156.03" y1="457.94" x2="156.03" y2="464.49"/></g><g id="ARC-10" data-name="ARC"><path class="cls-5" d="M24.73,384.13a4.48,4.48,0,0,0-4-2.51" transform="translate(139.81 76.32)"/></g><g id="LINE-53" data-name="LINE"><line class="cls-5" x1="168.03" y1="467.28" x2="164.54" y2="460.45"/></g><g id="ARC-11" data-name="ARC"><path class="cls-5" d="M22.36,400.87A6.68,6.68,0,0,0,28.22,391" transform="translate(139.81 76.32)"/></g><g id="LINE-54" data-name="LINE"><line class="cls-5" x1="160.51" y1="457.94" x2="156.03" y2="457.94"/></g><g id="CIRCLE-19" data-name="CIRCLE"><path class="cls-5" d="M25.06,281.74a1.93,1.93,0,1,0-1.93,1.93,1.92,1.92,0,0,0,1.93-1.93Z" transform="translate(139.81 76.32)"/></g><g id="LINE-55" data-name="LINE"><line class="cls-5" x1="161.66" y1="352.29" x2="153.96" y2="352.29"/></g><g id="ARC-12" data-name="ARC"><path class="cls-5" d="M21.85,287.52a5.78,5.78,0,0,0,0-11.55" transform="translate(139.81 76.32)"/></g><g id="LINE-56" data-name="LINE"><line class="cls-5" x1="153.96" y1="363.84" x2="161.66" y2="363.84"/></g><g id="ARC-13" data-name="ARC"><path class="cls-5" d="M14.15,276a5.78,5.78,0,0,0,0,11.55" transform="translate(139.81 76.32)"/></g><g id="CIRCLE-20" data-name="CIRCLE"><path class="cls-5" d="M10.94,281.74A3.21,3.21,0,1,1,14.15,285a3.21,3.21,0,0,1-3.21-3.21Z" transform="translate(139.81 76.32)"/></g><g id="ARC-14" data-name="ARC"><path class="cls-5" d="M17.49,336a4.49,4.49,0,1,1,4.3,5.78" transform="translate(139.81 76.32)"/></g><g id="ARC-15" data-name="ARC"><path class="cls-5" d="M21.79,341.75a4.48,4.48,0,0,1-4.3-3.21" transform="translate(139.81 76.32)"/></g><g id="LINE-57" data-name="LINE"><line class="cls-5" x1="150.69" y1="407.8" x2="150.69" y2="402.47"/></g><g id="LINE-58" data-name="LINE"><line class="cls-5" x1="157.11" y1="407.8" x2="153.9" y2="407.8"/></g><g id="LINE-59" data-name="LINE"><line class="cls-5" x1="150.69" y1="407.8" x2="149.41" y2="407.8"/></g><g id="LINE-60" data-name="LINE"><line class="cls-5" x1="149.41" y1="412.29" x2="154.2" y2="412.29"/></g><g id="LINE-61" data-name="LINE"><line class="cls-5" x1="150.69" y1="421.72" x2="157.11" y2="421.72"/></g><g id="LINE-62" data-name="LINE"><line class="cls-5" x1="149.41" y1="414.86" x2="154.2" y2="414.86"/></g><g id="LINE-63" data-name="LINE"><line class="cls-5" x1="150.69" y1="402.47" x2="157.11" y2="402.47"/></g><g id="LINE-64" data-name="LINE"><line class="cls-5" x1="158.21" y1="419.35" x2="157.11" y2="419.35"/></g><g id="LINE-65" data-name="LINE"><line class="cls-5" x1="158.21" y1="407.8" x2="157.11" y2="407.8"/></g><g id="LINE-66" data-name="LINE"><line class="cls-5" x1="157.11" y1="419.35" x2="153.9" y2="419.35"/></g><g id="LINE-67" data-name="LINE"><line class="cls-5" x1="150.69" y1="419.35" x2="149.41" y2="419.35"/></g><g id="LINE-68" data-name="LINE"><line class="cls-5" x1="157.11" y1="402.47" x2="157.11" y2="407.8"/></g><g id="LINE-69" data-name="LINE"><line class="cls-5" x1="150.69" y1="421.72" x2="150.69" y2="419.35"/></g><g id="LINE-70" data-name="LINE"><line class="cls-5" x1="157.11" y1="419.35" x2="157.11" y2="421.72"/></g><g id="LINE-71" data-name="LINE"><line class="cls-5" x1="149.41" y1="412.29" x2="149.41" y2="407.8"/></g><g id="LINE-72" data-name="LINE"><line class="cls-5" x1="149.41" y1="419.35" x2="149.41" y2="414.86"/></g><g id="LINE-73" data-name="LINE"><line class="cls-5" x1="148.42" y1="412.29" x2="149.41" y2="412.29"/></g><g id="LINE-74" data-name="LINE"><line class="cls-5" x1="148.42" y1="414.86" x2="149.41" y2="414.86"/></g><g id="LINE-75" data-name="LINE"><line class="cls-5" x1="148.42" y1="414.86" x2="148.42" y2="412.29"/></g><g id="CIRCLE-21" data-name="CIRCLE"><path class="cls-5" d="M23.72,337.26a1.93,1.93,0,1,0-1.93,1.92,1.93,1.93,0,0,0,1.93-1.92Z" transform="translate(139.81 76.32)"/></g><g id="LINE-76" data-name="LINE"><line class="cls-5" x1="158.21" y1="407.8" x2="161.6" y2="407.8"/></g><g id="LINE-77" data-name="LINE"><line class="cls-5" x1="153.9" y1="419.35" x2="150.69" y2="419.35"/></g><g id="LINE-78" data-name="LINE"><line class="cls-5" x1="153.9" y1="407.8" x2="150.69" y2="407.8"/></g><g id="LINE-79" data-name="LINE"><line class="cls-5" x1="154.2" y1="412.29" x2="157.3" y2="412.29"/></g><g id="LINE-80" data-name="LINE"><line class="cls-5" x1="154.2" y1="414.86" x2="157.3" y2="414.86"/></g><g id="ARC-16" data-name="ARC"><path class="cls-5" d="M21.79,331.48a5.78,5.78,0,0,1,0,11.55" transform="translate(139.81 76.32)"/></g><g id="LINE-81" data-name="LINE"><line class="cls-5" x1="161.6" y1="419.35" x2="158.21" y2="419.35"/></g><g id="LINE-82" data-name="LINE"><line class="cls-5" x1="156.49" y1="109.23" x2="157.66" y2="109.23"/></g><g id="LINE-83" data-name="LINE"><line class="cls-5" x1="156.49" y1="115.47" x2="157.66" y2="115.47"/></g><g id="LINE-84" data-name="LINE"><line class="cls-5" x1="155.61" y1="103.71" x2="157.57" y2="103.71"/></g><g id="LINE-85" data-name="LINE"><line class="cls-5" x1="155.61" y1="120.98" x2="157.57" y2="120.98"/></g><g id="LINE-86" data-name="LINE"><line class="cls-5" x1="156.49" y1="115.47" x2="156.49" y2="109.23"/></g><g id="LINE-87" data-name="LINE"><line class="cls-5" x1="160.01" y1="89" x2="157.81" y2="89"/></g><g id="LINE-88" data-name="LINE"><line class="cls-5" x1="155.61" y1="103.71" x2="155.61" y2="89"/></g><g id="LINE-89" data-name="LINE"><line class="cls-5" x1="160.01" y1="89" x2="160.01" y2="103.71"/></g><g id="LINE-90" data-name="LINE"><line class="cls-5" x1="156.49" y1="109.23" x2="155.61" y2="103.71"/></g><g id="LINE-91" data-name="LINE"><line class="cls-5" x1="160.01" y1="103.71" x2="159.13" y2="109.23"/></g><g id="LINE-92" data-name="LINE"><line class="cls-5" x1="160.01" y1="135.69" x2="157.81" y2="135.69"/></g><g id="LINE-93" data-name="LINE"><line class="cls-5" x1="155.61" y1="135.69" x2="155.61" y2="120.98"/></g><g id="LINE-94" data-name="LINE"><line class="cls-5" x1="160.01" y1="120.98" x2="160.01" y2="135.69"/></g><g id="LINE-95" data-name="LINE"><line class="cls-5" x1="159.13" y1="109.23" x2="159.13" y2="115.47"/></g><g id="LINE-96" data-name="LINE"><line class="cls-5" x1="159.13" y1="115.47" x2="160.01" y2="120.98"/></g><g id="LINE-97" data-name="LINE"><line class="cls-5" x1="155.61" y1="120.98" x2="156.49" y2="115.47"/></g><g id="LINE-98" data-name="LINE"><line class="cls-5" x1="157.66" y1="115.47" x2="159.13" y2="115.47"/></g><g id="LINE-99" data-name="LINE"><line class="cls-5" x1="157.66" y1="109.23" x2="159.13" y2="109.23"/></g><g id="LINE-100" data-name="LINE"><line class="cls-5" x1="157.81" y1="103.71" x2="160.01" y2="103.71"/></g><g id="LINE-101" data-name="LINE"><line class="cls-5" x1="157.81" y1="89" x2="155.61" y2="89"/></g><g id="LINE-102" data-name="LINE"><line class="cls-5" x1="157.57" y1="103.71" x2="157.81" y2="103.71"/></g><g id="LINE-103" data-name="LINE"><line class="cls-5" x1="157.81" y1="120.98" x2="160.01" y2="120.98"/></g><g id="LINE-104" data-name="LINE"><line class="cls-5" x1="157.81" y1="135.69" x2="155.61" y2="135.69"/></g><g id="LINE-105" data-name="LINE"><line class="cls-5" x1="157.57" y1="120.98" x2="157.81" y2="120.98"/></g><g id="LINE-106" data-name="LINE"><line class="cls-5" x1="147.54" y1="282.87" x2="149.7" y2="282.87"/></g><g id="LINE-107" data-name="LINE"><line class="cls-5" x1="153.12" y1="269.4" x2="154.64" y2="270.92"/></g><g id="LINE-108" data-name="LINE"><line class="cls-5" x1="168.19" y1="254.33" x2="168.95" y2="255.09"/></g><g id="LINE-109" data-name="LINE"><line class="cls-5" x1="169.72" y1="255.85" x2="154.64" y2="270.92"/></g><g id="LINE-110" data-name="LINE"><line class="cls-5" x1="153.12" y1="269.4" x2="168.19" y2="254.33"/></g><g id="ARC-17" data-name="ARC"><path class="cls-5" d="M14.84,194.61a16.86,16.86,0,0,0-4.95,11.94" transform="translate(139.81 76.32)"/></g><g id="ARC-18" data-name="ARC"><path class="cls-5" d="M7.73,206.55a19.06,19.06,0,0,1,5.58-13.47" transform="translate(139.81 76.32)"/></g><g id="LINE-111" data-name="LINE"><line class="cls-5" x1="147.54" y1="318.57" x2="148.62" y2="318.57"/></g><g id="LINE-112" data-name="LINE"><line class="cls-5" x1="149.7" y1="282.87" x2="149.7" y2="318.57"/></g><g id="LINE-113" data-name="LINE"><line class="cls-5" x1="147.54" y1="318.57" x2="147.54" y2="282.87"/></g><g id="LINE-114" data-name="LINE"><line class="cls-5" x1="168.95" y1="255.09" x2="169.72" y2="255.85"/></g><g id="LINE-115" data-name="LINE"><line class="cls-5" x1="148.62" y1="318.57" x2="149.7" y2="318.57"/></g><line class="cls-6" x1="151.02" y1="696.06" x2="164.89" y2="682.19"/><line class="cls-6" x1="164.89" y1="696.06" x2="151.02" y2="682.19"/><line class="cls-7" x1="154.44" y1="798.31" x2="154.44" y2="787.61"/><line class="cls-7" x1="161.18" y1="787.61" x2="161.18" y2="798.31"/><line class="cls-7" x1="152.61" y1="851.77" x2="163.01" y2="841.37"/><line class="cls-7" x1="163.01" y1="851.77" x2="152.61" y2="841.37"/><polyline class="cls-8" points="163.11 740.37 154.51 745.15 154.51 735.58 163.11 740.36"/><polyline class="cls-8" points="162.62 952.08 154.03 956.86 154.03 947.28 162.62 952.07"/><polyline class="cls-8" points="152.36 899.06 160.95 894.28 160.95 903.86 152.36 899.07"/><path class="cls-5" d="M18,548.82" transform="translate(139.81 76.32)"/><path class="cls-9" d="M17.73,549.19a11.76,11.76,0,1,0,11.75,11.75" transform="translate(139.81 76.32)"/><circle class="cls-10" cx="157.81" cy="1046.37" r="2.63"/></g></svg>